<svg xmlns="http://www.w3.org/2000/svg" viewBox="0 0 512 512"><rect width="512" height="512" fill="#f4f2ec"/><circle cx="256" cy="256" r="236" fill="#d7e1dc"/><path fill="#2f473b" d="M87 512c17-112 79-177 169-177s152 65 169 177z"/><path fill="#d99f82" d="M211 319h90v66c-22 22-68 22-90 0z"/><path fill="#f0c7ad" d="M140 170c0-74 46-124 116-124s116 50 116 124v61c0 86-46 142-116 142s-116-56-116-142z"/><path fill="#181817" d="M126 173c10-87 65-141 137-139 65 2 109 51 122 132-41-28-78-40-122-38-53 1-96 15-137 45z"/><circle cx="288" cy="154" r="4.5" fill="#5b4037"/><path fill="#2b2420" d="M171 196c29-16 60-15 89 2l-9 14c-25-10-47-10-72 1zm88 2c30-16 64-14 91 4l-10 14c-25-12-48-13-74-2z"/><circle cx="223" cy="236" r="5" fill="#111"/><circle cx="291" cy="236" r="5" fill="#111"/><path fill="none" stroke="#b97862" stroke-width="6" stroke-linecap="round" d="M256 247c-8 22-9 38 0 50"/><path fill="none" stroke="#8e5054" stroke-width="8" stroke-linecap="round" d="M220 318c23 14 49 14 72 0"/><circle cx="256" cy="256" r="230" fill="none" stroke="#fff" stroke-width="10"/></svg>
