<svg xmlns="http://www.w3.org/2000/svg" viewBox="0 0 512 512"><rect width="512" height="512" fill="#f2eee5"/><path fill="#d8e0d9" d="M60 430c97-47 184-42 261 15 48 35 91 49 131 43v24H60z"/><g fill="none" stroke="#242424" stroke-linecap="round" stroke-linejoin="round"><path stroke-width="8" fill="#f4cdb4" opacity=".85" d="M140 170c0-74 46-124 116-124s116 50 116 124v61c0 86-46 142-116 142s-116-56-116-142z"/><path stroke-width="8" fill="#201917" d="M126 173c10-87 65-141 137-139 65 2 109 51 122 132-41-28-78-40-122-38-53 1-96 15-137 45z"/><path stroke-width="5" d="M171 196c29-16 60-15 89 2m-88 40c14 9 29 9 43 0m44-40c30-16 64-14 91 4m-80 36c14 9 31 9 44 0m-58 9c-8 22-9 38 0 50m-36 21c23 14 49 14 72 0"/><path stroke-width="8" fill="#344b3f" d="M90 512c17-112 78-177 166-177s149 65 166 177z"/></g><circle cx="288" cy="154" r="4.5" fill="#242424"/></svg>
