<svg xmlns="http://www.w3.org/2000/svg" viewBox="0 0 512 512"><rect width="512" height="512" fill="#eef1ee"/><circle cx="113" cy="92" r="52" fill="#c1d1c8"/><path fill="#26312d" d="M90 512c17-112 78-177 166-177s149 65 166 177z"/><path fill="#d99f82" d="M211 319h90v65c-22 23-68 23-90 0z"/><path fill="#f0c7ad" d="M141 170c0-74 45-124 115-124s115 50 115 124v61c0 86-45 142-115 142s-115-56-115-142z"/><path fill="#171717" d="M127 173c10-88 64-142 136-139 65 2 109 50 122 132-42-28-78-40-122-39-53 1-95 16-136 46z"/><circle cx="288" cy="154" r="4.5" fill="#5a4037"/><path fill="#2b2421" d="M171 196c29-16 60-15 88 2l-8 14c-25-10-47-10-72 1zm87 2c30-16 64-14 91 4l-10 14c-25-12-48-13-74-2z"/><path fill="#111" d="M202 236c13 9 29 9 42 0-5-7-12-11-21-11s-16 4-21 11zm67 0c14 9 31 9 44 0-5-7-12-11-22-11s-17 4-22 11z"/><path fill="none" stroke="#b97862" stroke-width="6" stroke-linecap="round" d="M256 247c-8 22-9 38 0 50"/><path fill="none" stroke="#8e5054" stroke-width="8" stroke-linecap="round" d="M220 318c23 14 49 14 72 0"/><path fill="#f8f8f4" d="M172 386c23 39 51 58 84 58s61-19 84-58c-45-23-123-23-168 0z"/></svg>
